<svg width="47" height="47" viewBox="0 0 47 47" fill="none" xmlns="http://www.w3.org/2000/svg">
<path d="M33.7812 33.7812H12.8148L7.69258 5.61797C7.63265 5.2807 7.45671 4.97498 7.19521 4.75371C6.93371 4.53244 6.60309 4.40953 6.26055 4.40625H2.9375" stroke="white" stroke-width="2" stroke-linecap="round" stroke-linejoin="round"/>
<path d="M14.6875 41.125C16.7154 41.125 18.3594 39.481 18.3594 37.4531C18.3594 35.4252 16.7154 33.7812 14.6875 33.7812C12.6596 33.7812 11.0156 35.4252 11.0156 37.4531C11.0156 39.481 12.6596 41.125 14.6875 41.125Z" stroke="white" stroke-width="2" stroke-linecap="round" stroke-linejoin="round"/>
<path d="M33.7812 41.125C35.8092 41.125 37.4531 39.481 37.4531 37.4531C37.4531 35.4252 35.8092 33.7812 33.7812 33.7812C31.7533 33.7812 30.1094 35.4252 30.1094 37.4531C30.1094 39.481 31.7533 41.125 33.7812 41.125Z" stroke="white" stroke-width="2" stroke-linecap="round" stroke-linejoin="round"/>
<path d="M11.4746 26.4375H34.534C35.2206 26.4396 35.8859 26.1996 36.4131 25.7597C36.9402 25.3199 37.2955 24.7083 37.4164 24.0324L39.6562 11.75H8.8125" stroke="white" stroke-width="2" stroke-linecap="round" stroke-linejoin="round"/>
</svg>
